<?xml version="1.0" encoding="UTF-8" standalone="no"?>
<!-- Created with Inkscape (http://www.inkscape.org/) -->

<svg
   xmlns:dc="http://purl.org/dc/elements/1.1/"
   xmlns:cc="http://creativecommons.org/ns#"
   xmlns:rdf="http://www.w3.org/1999/02/22-rdf-syntax-ns#"
   xmlns:svg="http://www.w3.org/2000/svg"
   xmlns="http://www.w3.org/2000/svg"
   xmlns:sodipodi="http://sodipodi.sourceforge.net/DTD/sodipodi-0.dtd"
   xmlns:inkscape="http://www.inkscape.org/namespaces/inkscape"
   width="210mm"
   height="297mm"
   viewBox="0 0 210 297"
   version="1.1"
   id="svg8"
   inkscape:version="0.92.5 (2060ec1f9f, 2020-04-08)"
   sodipodi:docname="logoprueba.svg">
  <defs
     id="defs2" />
  <sodipodi:namedview
     id="base"
     pagecolor="#ffffff"
     bordercolor="#666666"
     borderopacity="1.0"
     inkscape:pageopacity="0.0"
     inkscape:pageshadow="2"
     inkscape:zoom="0.35"
     inkscape:cx="594.4017"
     inkscape:cy="403.95524"
     inkscape:document-units="mm"
     inkscape:current-layer="layer1-3"
     showgrid="false"
     inkscape:window-width="1294"
     inkscape:window-height="704"
     inkscape:window-x="72"
     inkscape:window-y="27"
     inkscape:window-maximized="1" />
  <metadata
     id="metadata5">
    <rdf:RDF>
      <cc:Work
         rdf:about="">
        <dc:format>image/svg+xml</dc:format>
        <dc:type
           rdf:resource="http://purl.org/dc/dcmitype/StillImage" />
        <dc:title></dc:title>
      </cc:Work>
    </rdf:RDF>
  </metadata>
  <g
     inkscape:label="Capa 1"
     inkscape:groupmode="layer"
     id="layer1">
    <g
       id="layer1-3"
       inkscape:label="Capa 1"
       transform="translate(-281.58107,-227.97817)">
      <g
         transform="translate(356.72175,285.79139)"
         id="g888">
        <path
           inkscape:connector-curvature="0"
           id="path894"
           d="M 14.489289,123.64601 C 14.1856,118.05929 10.314281,103.82109 7.6075087,98.335719 c -0.911828,-1.84786 -1.268497,-2.26554 -1.837069,-2.15131 -0.388056,0.078 -1.975556,0.15303 -3.527778,0.16681 -3.34555,0.0297 -4.868407,-0.62301 -7.603009,-3.25881 -2.973296,-2.86588 -2.246182,-3.64445 3.37616,-3.61509 2.47040801,0.0129 6.220633,1.03321 6.710408,1.82568 0.564805,0.91387 0.793771,0.0701 0.616617,-2.27225 -0.155159,-2.05158 -0.03963,-3.11963 0.546008,-5.04772 0.824851,-2.71564 2.106419,-4.8737 2.894256,-4.8737 0.285799,0 1.060983,1.09935 1.7412933,2.46945 1.088905,2.19299 1.226848,2.78538 1.232182,5.29166 0.0066,3.10655 -0.479611,4.42401 -2.3671283,6.41391 l -1.0645,1.12224 1.8352313,4.128 c 2.991302,6.728371 5.030318,13.627801 6.378593,21.583251 0.386559,2.28087 0.769898,4.32984 0.851866,4.55325 0.153854,0.41936 -0.857916,0.81639 -2.0952,0.82219 -0.60361,0.003 -0.72009,-0.26408 -0.80615,-1.84727 z m 19.986368,1.61851 c -0.4687,-0.12483 -0.52302,-0.39515 -0.29308,-1.45838 0.15524,-0.71783 0.63231,-3.21014 1.06014,-5.53848 1.29127,-7.02735 3.77264,-14.88966 6.76753,-21.443121 l 1.09364,-2.39312 -1.07654,-1.13465 c -1.89418,-1.99646 -2.38098,-3.31379 -2.37469,-6.42633 0.005,-2.40303 0.16557,-3.16281 1.08208,-5.11527 0.59202,-1.26119 1.33068,-2.50212 1.64147,-2.75764 0.67877,-0.55805 1.11862,0.004 2.56591,3.2807 1.21775,2.75673 1.65348,5.48631 1.19931,7.51292 -0.19508,0.87045 -0.29234,1.64498 -0.21614,1.72118 0.0762,0.0762 0.98718,-0.30206 2.0244,-0.84056 1.5387,-0.79886 2.44154,-1.00122 4.90435,-1.09925 3.38445,-0.13471 5.42808,0.25199 5.583,1.05643 0.14902,0.77381 -2.99645,3.95395 -4.86521,4.91885 -1.26221,0.65172 -2.16579,0.82254 -4.40972,0.83366 -1.55223,0.008 -3.13973,-0.0654 -3.52778,-0.16241 -0.5769,-0.14422 -0.89253,0.20959 -1.73089,1.94028 -1.48248,3.060401 -4.61232,12.489871 -5.4656,16.466581 -0.94842,4.42007 -1.81565,10.20914 -1.58522,10.58197 0.1839,0.29756 -1.33643,0.33378 -2.37696,0.0566 z m -10.26667,-19.76051 c 0.100354,-20.948201 0.15954,-20.203851 -1.607464,-20.215671 -1.136131,-0.008 -3.382751,-1.22034 -5.048447,-2.7252 -2.359963,-2.13208 -3.814837,-5.22773 -4.522735,-9.62337 -0.592564,-3.67948 -0.126432,-3.89585 3.791818,-1.76002 4.652303,2.53596 6.386304,4.35209 8.039918,8.42072 l 0.780062,1.91929 1.043118,-2.30054 c 0.57371,-1.26529 1.65311,-2.97573 2.39866,-3.80097 1.59024,-1.76021 4.74437,-3.9742 7.10071,-4.98425 1.55277,-0.6656 1.69756,-0.67396 2.10158,-0.12142 0.23866,0.32638 0.36862,1.01042 0.2888,1.52009 -0.0798,0.50967 -0.23609,1.65186 -0.34726,2.53823 -0.21741,1.73333 -1.75156,5.26694 -3.048,7.02047 -1.15097,1.55677 -4.08072,3.43726 -6.12598,3.93202 -0.97013,0.23468 -1.85982,0.57135 -1.97707,0.74815 -0.31647,0.47718 -0.32651,34.303171 -0.0109,36.870431 l 0.27102,2.20486 -1.610945,7e-5 -1.610945,7e-5 0.0941,-19.64296 z M -6.0891443,87.992499 c -2.824628,-1.05718 -6.5974447,-4.26988 -6.2075407,-5.28596 0.249298,-0.64965 2.079103,-0.99109 5.2981927,-0.98863 2.71847,0.002 5.023164,0.64021 6.49573901,1.79853 0.50206599576,0.39493 0.962166,0.66873 1.022445,0.60845 0.06028,-0.0603 -0.134337,-0.89594 -0.432473,-1.85702 -0.702847,-2.2657 -0.472377,-6.05081 0.525254,-8.62659 1.08124999,-2.79168 1.30653299,-3.07711 2.06111799,-2.61139 0.937094,0.57835 2.836972,4.46009 3.126722,6.38836 0.52239,3.47645 -1.329531,8.21747 -3.209879,8.21747 -0.638344,0 -0.876938,0.18975 -0.876938,0.69742 0,0.38359 -0.401909,0.96077 -0.89313099,1.28263 -1.192911,0.78163 -5.23836201,1.0022 -6.90950901,0.37673 z m 57.2797213,-0.20827 c -0.82462,-0.3866 -1.49931,-0.91398 -1.49931,-1.17197 0,-0.25799 -0.47923,-0.64997 -1.06497,-0.87106 -1.5802,-0.59646 -2.95271,-3.76622 -2.94799,-6.80826 0.004,-2.55455 0.9743,-5.47994 2.39879,-7.23194 0.7837,-0.96388 0.91092,-1.00893 1.4255,-0.50479 0.31076,0.30445 0.95324,1.65383 1.42774,2.99861 0.95223,2.69875 1.13161,5.74875 0.4683,7.96266 -0.22511,0.75137 -0.3384,1.43703 -0.25174,1.52368 0.0867,0.0867 1.08697,-0.31124 2.2229,-0.88421 1.84178,-0.92902 2.39409,-1.03727 5.10244,-1.00005 3.75474,0.0516 5.11305,0.32624 5.25483,1.06247 0.15324,0.79569 -2.7578,3.60624 -4.71806,4.55519 -2.32789,1.12691 -5.8482,1.29336 -7.81843,0.36967 z m -63.89533,-7.97627 c -1.042049,-0.4851 -2.867674,-1.66318 -4.056944,-2.61797 -2.597182,-2.08512 -10.768252,-10.25149 -10.257388,-10.25149 0.198304,0 1.783324,1.27434 3.522264,2.83186 1.738937,1.55752 3.981143,3.47103 4.982679,4.25223 l 1.820972,1.42037 2.033132,-0.59105 c 2.578968,-0.74972 5.3114287,-0.50087 7.6132677,0.69337 1.867874,0.96909 1.954848,0.89749 1.175544,-0.96765 -0.675294,-1.6162 -0.655334,-5.28583 0.03867,-7.10996 0.295278,-0.77611 0.624508,-1.68964 0.731629,-2.03005 0.220525,-0.70082 -2.520371,-4.54046 -6.1745097,-8.64969 -1.254926,-1.41122 -2.191011,-2.65652 -2.08019,-2.76735 0.378009,-0.378 7.8316587,7.45143 9.7387507,10.22975 2.278031,3.31871 3.21909001,5.64189 3.19822001,7.89543 -0.02678,2.89093 -1.42530001,5.72885 -2.82317101,5.72885 -0.351586,0 -0.702723,0.35893 -0.824054,0.84235 -0.499614,1.99063 -5.381833,2.6072 -8.6388737,1.091 z m 69.50767,0.34943 c -0.64825,-0.28151 -1.25856,-0.81747 -1.35625,-1.19104 -0.0977,-0.37356 -0.57098,-0.77793 -1.05175,-0.8986 -0.63057,-0.15826 -1.1253,-0.768 -1.77551,-2.18825 -2.18167,-4.76538 0.17192,-9.99672 8.35232,-18.56477 1.98443,-2.07846 3.74788,-3.69261 3.91878,-3.58698 0.17091,0.10562 -0.93891,1.608 -2.46626,3.3386 -1.52734,1.73061 -3.51268,4.17754 -4.41186,5.43762 l -1.63486,2.29107 0.71381,2.11893 c 0.84765,2.5162 0.92146,5.69733 0.18089,7.79632 -0.29312,0.83077 -0.47601,1.56742 -0.40643,1.637 0.0696,0.0696 0.82534,-0.2601 1.67946,-0.73262 2.0926,-1.15768 4.3395,-1.43286 7.33241,-0.898 l 2.47685,0.44264 2.57462,-2.06351 c 1.41605,-1.13493 3.64797,-3.0093 4.95982,-4.16527 4.06253,-3.57978 3.13471,-1.80048 -1.33149,2.55343 -4.54887,4.43449 -8.75512,7.7971 -10.84625,8.67083 -1.62469,0.67884 -5.34783,0.68024 -6.9083,0.002 z m -73.737352,-7.66264 c -1.492772,-0.80452 -13.807623,-12.39127 -13.807623,-12.99126 0,-0.7054 0.710777,-0.16206 5.600259,4.28107 3.608151,3.27877 5.235483,4.54187 5.643901,4.38067 1.653413,-0.65258 4.194319,-0.59123 5.850198,0.14124 0.930903,0.41178 1.753877,0.7487 1.828832,0.7487 0.07495,0 -0.103978,-0.57502 -0.397623,-1.27781 -0.61237,-1.46561 -0.702973,-4.58157 -0.173697,-5.97366 0.342656,-0.90127 0.115012,-1.19699 -4.674306,-6.07217 -5.467339,-5.56536 -6.160896,-7.28434 -1.058717,-2.62403 5.182379,4.73357 9.2572117,9.16388 10.0249727,10.89953 1.278774,2.89088 0.39702,6.81202 -1.531831,6.81202 -0.4210897,0 -0.6508787,0.25545 -0.6508787,0.72356 0,1.68018 -4.190047,2.27979 -6.653487,0.95214 z m 79.766672,0.2678 c -0.75815,-0.32952 -1.14652,-0.74309 -1.14652,-1.22091 0,-0.48916 -0.2296,-0.72259 -0.71074,-0.72259 -1.8862,0 -2.70289,-4.13035 -1.38922,-7.02589 0.72898,-1.6068 5.34384,-6.54962 10.3133,-11.04621 4.54873,-4.11589 3.53525,-2.35499 -1.66535,2.89351 -3.8145,3.84964 -4.81607,5.05394 -4.61545,5.54966 0.59556,1.47157 0.6197,4.86732 0.0444,6.24425 -0.31629,0.75699 -0.50837,1.44306 -0.42684,1.52459 0.0815,0.0815 0.67893,-0.13943 1.32755,-0.49101 0.88962,-0.48221 1.9649,-0.64026 4.37735,-0.64337 l 3.19804,-0.004 3.68112,-3.39957 c 4.64667,-4.29125 5.95615,-5.37912 6.19157,-5.14369 0.10318,0.10317 -2.45633,2.89323 -5.68779,6.20013 -6.31609,6.46354 -8.21964,7.8234 -10.91483,7.79737 -0.78652,-0.008 -1.94598,-0.23805 -2.57657,-0.51213 z m -41.892354,-0.66396 c -3.349903,-1.57676 -5.937193,-4.98026 -7.058493,-9.28523 -0.603374,-2.3165 -0.690002,-4.90422 -0.174837,-5.22261 0.567087,-0.35048 5.026148,2.17983 7.102146,4.03014 2.096774,1.86883 3.552546,4.2289 4.202204,6.81253 0.380662,1.51386 1.044254,2.01623 1.044254,0.79055 0,-0.27231 0.34128,-1.41388 0.75839,-2.53682 0.97323,-2.62006 4.43445,-6.12725 7.73658,-7.83933 3.55713,-1.84428 4.01878,-1.2963 2.99139,3.55081 -0.98347,4.63985 -3.28878,7.91008 -6.72065,9.53365 -2.44048,1.15456 -4.20134,1.29774 -4.74818,0.38608 -0.352669,-0.58796 -0.387939,-0.58796 -0.740611,0 -0.519614,0.86628 -2.271011,0.77864 -4.392193,-0.21977 z m -37.394442,-5.84274 c -2.861207,-0.69656 -4.544832,-2.34542 -5.786828,-5.66735 -0.591295,-1.58152 -1.444258,-2.65669 -4.613049,-5.81482 -2.138193,-2.13099 -3.887622,-3.99631 -3.887622,-4.14514 0,-0.68628 0.89638,-0.002 4.730881,3.60996 2.265623,2.13431 4.325168,3.88056 4.576762,3.88056 0.251594,0 1.45192,0.49694 2.667391,1.10432 2.323493,1.16106 3.961148,3.11495 4.440661,5.29817 0.209479,0.95375 -0.27885,2.12097 -0.848473,2.02806 -0.121765,-0.0199 -0.697639,-0.15205 -1.279723,-0.29376 z m 82.627656,-0.0711 c -1.13339,-0.63428 0.24117,-4.41004 2.20795,-6.06497 0.595,-0.50067 2.05104,-1.2637 3.23565,-1.69563 1.807,-0.65886 2.79319,-1.39996 6.12413,-4.60213 2.18366,-2.09925 4.06832,-3.81681 4.18814,-3.81681 0.74053,0 -0.24738,1.25706 -3.80315,4.8393 -3.22699,3.25101 -4.10625,4.35539 -4.45269,5.59273 -0.48475,1.73136 -1.53511,3.302 -2.95525,4.41908 -1.29216,1.01642 -3.79504,1.748 -4.54478,1.32843 z m -43.175821,-5.60204 c -1.720349,-0.37868 -4.157838,-1.95005 -5.552729,-3.57967 -2.756545,-3.22039 -3.764809,-8.19788 -3.990089,-19.697832 -0.09894,-5.050588 -0.03571,-8.152418 0.161816,-7.937499 0.178318,0.194028 0.598462,3.686527 0.933651,7.76111 0.335184,4.074583 0.699738,7.852711 0.810111,8.395831 0.157537,0.7752 0.655768,1.21722 2.317528,2.05607 2.495582,1.25977 5.356256,3.82618 6.277306,5.63159 0.360331,0.7063 0.840398,2.0199 1.066821,2.9191 0.492464,1.95575 0.871675,2.07879 1.189266,0.38588 0.67886,-3.61863 3.06735,-6.56487 7.01458,-8.65258 1.19803,-0.63364 2.27903,-1.30387 2.40222,-1.4894 0.30081,-0.45301 0.88858,-5.284595 1.41453,-11.62774 0.2373,-2.86191 0.57972,-5.203472 0.76094,-5.203472 0.19957,0 0.26089,3.164494 0.15553,8.025694 -0.25048,11.556438 -1.27539,16.326448 -4.229,19.681918 -2.40179,2.72857 -6.70659,4.25338 -7.67754,2.71947 -0.282718,-0.44664 -0.442403,-0.4943 -0.577443,-0.17235 -0.307735,0.73367 -1.291494,1.04493 -2.477498,0.78388 z m 3.487221,-11.83359 c -0.46781,-0.32767 -0.816058,-0.3855 -0.956164,-0.15881 -0.323734,0.52381 -2.180308,0.4342 -3.330853,-0.16077 -1.619924,-0.8377 -3.751182,-3.53902 -4.386986,-5.56042 -0.502084,-1.596245 -0.571955,-3.414246 -0.491807,-12.796275 0.05974,-6.992997 0.220606,-10.935691 0.446197,-10.935691 0.319281,0 0.712011,7.049138 0.838965,15.058717 l 0.04298,2.711496 2.092304,1.467668 c 2.219423,1.556836 3.518252,3.205226 4.229942,5.368365 0.239385,0.72761 0.55656,1.32292 0.704826,1.32292 0.148269,0 0.452156,-0.60939 0.675306,-1.35419 0.60839,-2.030622 2.32359,-4.168148 4.42149,-5.510157 l 1.87324,-1.198298 0.2375,-8.709014 c 0.13062,-4.789956 0.33487,-8.866561 0.45387,-9.059117 0.63085,-1.020727 0.82344,1.586685 0.82834,11.214663 0.004,8.31234 -0.10667,10.984896 -0.51257,12.351713 -0.8324,2.803 -2.66105,4.88748 -5.22884,5.96037 -1.04496,0.43662 -1.29805,0.43489 -1.93774,-0.0131 z m -1.737687,-9.41544 c -1.545695,-1.69044 -2.032977,-3.145377 -2.03811,-6.085416 -0.0043,-2.458095 0.142999,-3.134564 1.1416,-5.243078 l 1.146527,-2.42086 0.0054,-6.927751 c 0.0049,-6.314065 0.245935,-8.381512 0.900733,-7.726714 0.131417,0.13142 0.309587,3.460573 0.395937,7.398116 0.15463,7.051301 0.17311,7.195294 1.22622,9.556012 1.88746,4.231072 1.67889,8.068013 -0.60108,11.057198 -1.070205,1.403117 -1.227254,1.431431 -2.177227,0.392493 z"
           style="fill:#d7a343;stroke:#000000;stroke-width:0.35277775;stroke-opacity:1"
           inkscape:export-xdpi="96"
           inkscape:export-ydpi="96" />
        <path
           inkscape:connector-curvature="0"
           id="path892"
           d="m 17.235717,164.99367 c -1.067153,-0.15253 -2.478818,-0.44461 -3.13703,-0.64908 -0.658217,-0.20447 -1.303327,-0.3059 -1.43358,-0.2254 -0.130252,0.0805 -1.416212,-0.0171 -2.8576873,-0.21683 -2.718039,-0.37666 -5.459754,-1.39607 -5.700966,-2.11971 -0.103843,-0.31153 -0.41553,-0.32019 -1.23553,-0.0343 -2.43496399,0.84882 -15.8314157,-4.78153 -23.9115927,-10.04974 -18.07677,-11.7859 -31.561795,-30.34369 -36.617456,-50.39213 -2.111343,-8.372631 -2.523215,-11.957131 -2.530253,-22.020731 -0.0058,-8.26787 0.08865,-9.87879 0.816892,-13.93472 3.247863,-18.08901 10.612977,-32.85079 22.713906,-45.525146 19.722986,-20.65759592 48.509097,-30.132702 77.000237,-25.3450489 14.02556,2.356851 27.56124,8.408094 38.80556,17.3483609 3.25324,2.586626 10.24825,9.44325 13.07743,12.818716 9.495893,11.329443 16.659483,27.336208 18.452873,41.232258 1.5703,12.16737 1.38079,20.87832 -0.6761,31.07733 -3.04538,15.100391 -11.316113,31.006601 -21.328653,41.019141 -1.94023,1.94024 -2.73392,2.34865 -3.17555,1.63408 -0.11992,-0.19403 -0.52617,-0.35278 -0.90277,-0.35278 -0.83315,0 -0.90277,0.93824 -0.13276,1.78909 0.50192,0.55462 0.49712,0.6531 -0.0529,1.08611 -0.3327,0.2619 -1.46798,1.31325 -2.52285,2.33632 -1.05487,1.02307 -2.42011,2.0769 -3.03388,2.34183 -0.61376,0.26494 -1.98988,1.27126 -3.05806,2.23627 -2.85241,2.57695 -6.27674,4.67384 -12.75181,7.80861 -9.14758,4.42861 -17.32328,6.84716 -26.95478,7.97381 -4.78084,0.55925 -15.437711,0.65177 -18.85266,0.16369 z m 21.69583,-1.20599 c 8.61043,-1.34051 17.45941,-4.15721 23.8125,-7.57972 0.6791,-0.36584 2.42535,-1.25165 3.88056,-1.96846 3.59658,-1.77163 6.70277,-3.6692 6.70277,-4.09472 0,-0.55218 2.24386,-3.1123 2.73403,-3.11937 0.79579,-0.0115 0.46187,-0.91656 -0.63821,-1.72988 l -1.07917,-0.79787 -1.12569,0.84028 c -1.96642,1.46786 -8.48708,5.4404 -11.02522,6.71682 -7.2376,3.63979 -16.8287,6.563 -26.43657,8.05745 -3.53648,0.55007 -15.577986,0.54726 -19.579163,-0.005 -7.9681493,-1.09896 -13.9425363,-2.63798 -20.6553883,-5.32091 -9.3421127,-3.73376 -15.6944897,-7.72339 -25.0061467,-15.70517 -2.832047,-2.42758 -9.646835,-10.52681 -12.573599,-14.94345 -4.726269,-7.13219 -8.726321,-16.0082 -10.720231,-23.78791 -2.320901,-9.055531 -2.473318,-10.378711 -2.467042,-21.417251 0.0054,-9.57926 0.05075,-10.26467 0.9591,-14.51065 3.331506,-15.57264 9.82909,-28.625194 19.557614,-39.287958 4.756824,-5.213625 6.832155,-7.119359 11.889757,-10.918112 11.566207,-8.6873529 24.5979477,-13.88326892 39.446808,-15.7279219 4.657777,-0.57863 18.068451,-0.273304 22.323291,0.508243 13.70688,2.517736 25.82293,7.828121 36.11349,15.8283019 9.47392,7.365294 16.91049,16.187144 22.66033,26.881481 4.042013,7.517866 7.574653,19.015946 8.631413,28.093576 0.68981,5.92553 0.52474,16.27333 -0.34917,21.88786 -2.90362,18.654701 -12.176953,35.666931 -26.442413,48.509501 -2.64054,2.37717 -2.76134,2.5511 -2.44116,3.51483 0.65696,1.97739 3.2789,2.53391 3.2789,0.69597 0,-0.59459 0.25081,-0.94568 0.79375,-1.11113 1.52407,-0.46445 1.95136,-1.132 1.76767,-2.76163 -0.14949,-1.32632 -0.0532,-1.60941 0.76654,-2.25424 0.70171,-0.55197 1.24401,-0.6877 2.15616,-0.53968 1.16346,0.1888 1.21866,0.14969 1.21866,-0.86353 0,-1.32725 0.6826,-1.91243 2.28373,-1.95782 1.58106,-0.0448 2.16474,-0.65202 6.39644,-6.65419 5.468713,-7.75674 10.276103,-18.11493 12.663033,-27.28429 1.3631,-5.236341 2.30084,-12.294451 2.53601,-19.087891 l 0.20893,-6.03511 -1.26301,-2.4783 -1.26301,-2.4783 0.86415,-0.81184 c 0.77079,-0.72412 0.83998,-1.00494 0.64039,-2.59908 -0.12307,-0.98299 -0.35419,-1.92947 -0.5136,-2.10329 -0.15942,-0.17381 -0.20241,-0.7532 -0.0955,-1.28753 0.55885,-2.79422 -3.29897,-14.69123 -7.48762,-23.090865 C 97.317167,31.506675 91.239237,23.507711 83.192907,16.184246 76.562767,10.149746 69.761167,5.5877121 62.127957,2.0553561 c -11.20089,-5.183336 -21.33975,-7.604513 -33.6033,-8.024512 -24.1973033,-0.828703 -46.617776,8.092478 -63.985233,25.4599349 -3.507323,3.507323 -8.80111,10.138018 -11.29491,14.147358 -2.631468,4.23067 -6.079006,11.364072 -7.909905,16.366622 -1.939703,5.29982 -2.428042,7.12171 -3.829643,14.2875 -0.914724,4.67659 -0.966028,5.47283 -0.966028,14.99305 0,9.52022 0.0513,10.31646 0.966028,14.99306 1.408169,7.199371 1.893711,9.002961 3.846312,14.287491 2.563942,6.93907 6.354578,14.17527 10.533608,20.10834 6.316691,8.96794 16.324008,18.26376 25.916631,24.074 3.556261,2.15402 11.4254767,5.84793 14.7967507,6.94578 4.31257801,1.40438 5.384814,1.59125 6.034895,1.05173 0.712188,-0.59107 2.849079,0.11356 3.842882,1.26716 0.757809,0.87965 0.953407,0.83645 3.6680923,-0.81014 0.635952,-0.38574 0.784623,-0.37142 0.96272,0.0927 0.27197,0.70874 -0.477055,1.61323 -1.1288263,1.36312 -0.276856,-0.10624 -0.503375,-0.0174 -0.503375,0.19735 0,0.61369 2.7099793,0.48631 2.9497973,-0.13864 0.305665,-0.79655 1.248894,-0.64002 2.657299,0.44097 0.695187,0.53358 1.900795,1.07441 2.679132,1.20186 2.52192,0.41294 17.429863,0.01 21.170713,-0.57281 z M 108.96299,77.178509 c -0.51328,-0.95908 -0.12519,-2.20043 0.64245,-2.05497 0.76197,0.14438 0.9559,1.79953 0.27688,2.36307 -0.42702,0.35439 -0.59488,0.29814 -0.91933,-0.3081 z M 37.873217,159.02847 c 12.55964,-2.05591 22.33946,-5.87874 32.55618,-12.72586 8.28054,-5.54952 14.35675,-11.39358 20.51286,-19.72913 8.21968,-11.12967 13.487013,-25.06421 14.874613,-39.350261 0.51063,-5.25723 0.22379,-16.05437 -0.54826,-20.6375 -1.3791,-8.1867 -4.87254,-18.61555 -8.390303,-25.047219 -1.97056,-3.602884 -6.11825,-9.914998 -8.34515,-12.699999 -2.75364,-3.443749 -8.6101,-9.261848 -12.38356,-12.302436 C 64.227537,6.9294541 50.020827,0.95951608 34.874607,-0.80849992 29.788827,-1.4021619 20.200024,-1.3178899 15.295439,-0.63642592 9.9901167,0.10071708 3.6966707,1.5963751 -1.1087263,3.2620791 -8.7996203,5.9279851 -18.289366,11.24321 -24.949708,16.615461 c -3.305478,2.66621 -9.529815,8.907652 -12.18953,12.22304 -2.579701,3.215644 -7.355303,10.579826 -9.036532,13.934718 -4.100121,8.1818 -7.078236,17.88598 -8.228051,26.81111 -0.519522,4.03263 -0.515666,14.90341 0.0068,19.05 3.35607,26.638011 19.165435,49.665071 42.705007,62.201801 6.4373507,3.42841 16.1408657,6.64368 24.105995,7.98754 8.181311,1.38034 17.804946,1.45776 25.459286,0.2048 z m -20.108333,-2.35951 c -8.8306243,-0.93765 -19.4236013,-4.07875 -27.5646363,-8.17364 -5.1010917,-2.56583 -17.2176427,-11.24139 -17.6761197,-12.65627 -0.194451,-0.60008 1.265262,-1.26861 7.201581,-3.29822 15.9709327,-5.46042 30.809721,-7.65789 49.151678,-7.27886 13.05435,0.26977 22.57804,1.55497 34.39583,4.64164 7.30038,1.90678 15.69861,5.00215 15.69861,5.7861 0,0.48277 -5.336,4.83896 -9.27573,7.57249 -9.31542,6.46341 -19.32347,10.58073 -30.58816,12.584 -3.49319,0.62122 -6.02281,0.80378 -12.17083,0.8784 -4.268613,0.0518 -8.396112,0.0268 -9.172223,-0.0556 z m 20.637503,-1.33789 c 4.17029,-0.71716 11.6954,-2.76923 15.07042,-4.10964 4.91282,-1.95116 11.60545,-5.56555 15.97402,-8.62685 4.48216,-3.1409 8.46666,-6.36405 8.46666,-6.84885 0,-0.33473 -4.60577,-2.0873 -9.70138,-3.69154 -24.1642,-7.60753 -53.792036,-8.3423 -78.1402773,-1.93788 -7.4785457,1.96711 -16.5764547,5.07695 -16.5794047,5.66714 -0.0021,0.45275 4.137413,3.7954 8.641905,6.97806 9.9968007,7.06324 20.8133477,11.07475 35.630554,13.2142 2.581221,0.37271 17.416233,-0.0907 20.637503,-0.64464 z"
           style="fill:#688b6d;stroke:#000000;stroke-width:0.35277775;stroke-opacity:1"
           inkscape:export-xdpi="96"
           inkscape:export-ydpi="96" />
        <path
           inkscape:connector-curvature="0"
           id="path890"
           d="m 17.760834,164.36049 c -0.778337,-0.12745 -1.983945,-0.66828 -2.679132,-1.20186 -1.408405,-1.08099 -2.351634,-1.23752 -2.657299,-0.44097 -0.239818,0.62495 -2.9497973,0.75233 -2.9497973,0.13864 0,-0.21478 0.226519,-0.30359 0.503375,-0.19735 0.6517713,0.25011 1.4007963,-0.65438 1.1288263,-1.36312 -0.178097,-0.46411 -0.326768,-0.47843 -0.96272,-0.0927 -2.7146853,1.64659 -2.9102833,1.68979 -3.6680923,0.81014 -0.993803,-1.1536 -3.130694,-1.85823 -3.842882,-1.26716 -0.650081,0.53952 -1.72231699,0.35265 -6.034895,-1.05173 -3.371274,-1.09785 -11.2404897,-4.79176 -14.7967507,-6.94578 -9.592623,-5.81024 -19.59994,-15.10606 -25.916631,-24.074 -4.17903,-5.93307 -7.969666,-13.16927 -10.533608,-20.10834 -1.952601,-5.28453 -2.438143,-7.08812 -3.846312,-14.287491 -0.914724,-4.6766 -0.966028,-5.47284 -0.966028,-14.99306 0,-9.52022 0.0513,-10.31646 0.966028,-14.99305 1.401601,-7.16579 1.88994,-8.98768 3.829643,-14.2875 1.830899,-5.00255 5.278437,-12.135952 7.909905,-16.366622 6.007848,-9.658956 15.566735,-19.294004 25.714867,-25.9197489 19.3847597,-12.656371 43.29128,-16.801154 66.478226,-11.525638 7.14827,1.626384 17.72154,5.838698 23.56951,9.389925 14.48647,8.7970209 25.83641,20.9635529 33.048543,35.4262489 4.18865,8.399635 8.04647,20.296645 7.48762,23.090885 -0.10686,0.53432 -0.0639,1.11371 0.0955,1.28753 0.15941,0.17381 0.39053,1.12029 0.5136,2.10328 0.19959,1.59415 0.1304,1.87497 -0.64039,2.59909 l -0.86415,0.81183 1.26301,2.4783 1.26301,2.4783 -0.20893,6.03511 c -0.23517,6.79344 -1.17291,13.85155 -2.53601,19.087891 -2.38693,9.16937 -7.19432,19.52756 -12.663033,27.2843 -4.2317,6.00217 -4.81538,6.60937 -6.39644,6.65419 -1.60113,0.0454 -2.28373,0.63057 -2.28373,1.95781 0,1.01322 -0.0552,1.05234 -1.21866,0.86353 -0.91215,-0.14802 -1.45445,-0.0123 -2.15616,0.53968 -0.81977,0.64483 -0.91603,0.92793 -0.76654,2.25424 0.18369,1.62964 -0.2436,2.29718 -1.76767,2.76163 -0.54294,0.16546 -0.79375,0.51655 -0.79375,1.11113 0,1.83795 -2.62194,1.28142 -3.2789,-0.69597 -0.32018,-0.96373 -0.19938,-1.13766 2.44116,-3.51483 14.26546,-12.84257 23.538793,-29.8548 26.442413,-48.509501 0.87391,-5.61452 1.03898,-15.96233 0.34917,-21.88785 C 104.55529,54.496839 98.140097,39.515253 88.290047,27.654826 75.539087,12.301423 58.960237,2.6754981 38.931547,-1.0034559 c -4.25484,-0.781547 -17.665514,-1.086873 -22.323291,-0.508243 -14.8488603,1.84465298 -27.880601,7.040569 -39.446808,15.7279219 -5.057602,3.798753 -7.132933,5.704487 -11.889757,10.918112 -9.728524,10.662764 -16.226108,23.715314 -19.557614,39.287964 -0.908353,4.24597 -0.953657,4.93138 -0.9591,14.51064 -0.0063,11.03855 0.146141,12.36172 2.467042,21.417251 1.99391,7.77972 5.993962,16.65573 10.720231,23.78791 2.926764,4.41665 9.741552,12.51587 12.573599,14.94345 6.707321,5.7494 12.829596,10.01527 18.433297,12.84394 3.1995247,1.61507 10.42507971,4.45516 13.8691397,5.45144 3.397504,0.9828 9.0226303,2.13263 13.3590983,2.7307 4.001177,0.55184 16.042683,0.55465 19.579163,0.005 9.60787,-1.49444 19.19897,-4.41766 26.43657,-8.05744 2.53814,-1.27643 9.0588,-5.24897 11.02522,-6.71683 l 1.12569,-0.84027 1.07917,0.79787 c 1.10008,0.81332 1.434,1.7184 0.63821,1.72987 -0.49017,0.007 -2.73403,2.56719 -2.73403,3.11937 0,0.42553 -3.10619,2.3231 -6.70277,4.09472 -1.45521,0.71682 -3.20146,1.60262 -3.88056,1.96847 -6.35309,3.4225 -15.20207,6.23921 -23.8125,7.57971 -3.74085,0.5824 -18.648793,0.98576 -21.170713,0.57282 z M 110.29869,76.143939 c -0.13063,-1.12006 -1.19052,-1.4151 -1.50655,-0.41938 -0.12434,0.39176 -0.0474,1.04604 0.17085,1.45395 0.32445,0.60624 0.49231,0.66249 0.91933,0.3081 0.28732,-0.23845 0.47468,-0.84266 0.41637,-1.34267 z M 17.764884,155.97571 c -7.330108,-1.05839 -14.8175663,-2.86692 -19.9520313,-4.81923 -4.899102,-1.86282 -11.2346307,-5.25514 -15.6785227,-8.39497 -4.504492,-3.18266 -8.644169,-6.52531 -8.641905,-6.97806 0.0028,-0.59019 9.100859,-3.70003 16.5794047,-5.66714 24.3482413,-6.40442 53.9760773,-5.66965 78.1402773,1.93788 5.09561,1.60424 9.70138,3.35681 9.70138,3.69154 0,0.4848 -3.9845,3.70795 -8.46666,6.84885 -4.36857,3.0613 -11.0612,6.67569 -15.97402,8.62685 -3.37502,1.34041 -10.90013,3.39248 -15.07042,4.10964 -3.22127,0.55395 -18.056282,1.01735 -20.637503,0.64464 z"
           style="fill:#48734e;stroke:#000000;stroke-width:0.35277775;stroke-opacity:1"
           inkscape:export-xdpi="96"
           inkscape:export-ydpi="96" />
      </g>
    </g>
  </g>
</svg>
